<svg width="38" height="23" viewBox="0 0 38 23" fill="none" xmlns="http://www.w3.org/2000/svg">
<g id="dumbbell.fill">
<g id="Group">
<path id="Vector" d="M2.53249 19.2251C3.7326 19.2251 4.65121 18.3065 4.65121 17.1361V5.93501C4.65121 4.74971 3.7326 3.81629 2.53249 3.81629C1.34719 3.81629 0.428589 4.74971 0.428589 5.93501V17.1361C0.428589 18.3065 1.34719 19.2251 2.53249 19.2251ZM9.5702 22.4996C11.5407 22.4996 12.9187 21.1809 12.9187 19.314V3.77184C12.9187 1.89018 11.5407 0.571533 9.5702 0.571533C7.61445 0.571533 6.23655 1.89018 6.23655 3.77184V19.314C6.23655 21.1809 7.61445 22.4996 9.5702 22.4996ZM14.6374 14.3951H23.8382V8.67601H14.6374V14.3951ZM28.9053 22.4996C30.8759 22.4996 32.2539 21.1809 32.2539 19.314V3.77184C32.2539 1.89018 30.8759 0.571533 28.9053 0.571533C26.9497 0.571533 25.5717 1.89018 25.5717 3.77184V19.314C25.5717 21.1809 26.9497 22.4996 28.9053 22.4996ZM35.795 19.2251C36.9803 19.2251 37.9136 18.3065 37.9136 17.1361V5.93501C37.9136 4.74971 36.9803 3.81629 35.795 3.81629C34.6097 3.81629 33.691 4.74971 33.691 5.93501V17.1361C33.691 18.3065 34.6097 19.2251 35.795 19.2251Z" fill="#262626"/>
</g>
</g>
</svg>
