<?xml version="1.0" encoding="utf-8"?>
<!-- Generator: Adobe Illustrator 19.0.0, SVG Export Plug-In . SVG Version: 6.00 Build 0)  -->
<svg version="1.1" id="Layer_1" xmlns="http://www.w3.org/2000/svg" xmlns:xlink="http://www.w3.org/1999/xlink" x="0px" y="0px"
	 viewBox="-32 264.6 546.7 264.4" style="enable-background:new -32 264.6 546.7 264.4;" xml:space="preserve">
<style type="text/css">
	.st0{fill:#FFFFFF;}
</style>
<rect id="XMLID_1_" x="-32" y="264.6" class="st0" width="546.7" height="264.4"/>
<path id="XMLID_253_" d="M79.1,385.9c-4.3,0-8.6,0.1-12.9,0c-9.9-0.2-17.3-4.8-21.4-13.8c-3.9-8.5-2.6-16.8,3.2-24.1
	c4.3-5.4,10.1-8.4,17-8.6c9.3-0.2,18.7-0.2,28,0c10.2,0.2,19.1,7.5,21.6,17.3c2.6,9.9-1.6,20.3-10.2,25.7c-3.8,2.3-7.8,3.6-12.3,3.5
	C87.9,385.8,83.5,385.9,79.1,385.9z M79,374.5c3.8-0.2,7.5,0.2,11.3-0.2c6.8-0.7,11.8-8,9.9-14.5c-1.6-5.7-6-9-12-9.1
	s-12.1,0-18.1,0c-5.1,0-8.9,2.3-11.3,6.9c-3.5,6.8,1.5,16,9,16.7C71.5,374.7,75.3,374.4,79,374.5z"/>
<path id="XMLID_252_" d="M79.1,389.7c8.6,0,17.1,0,25.7,0c1,0,1.4,0.2,1.4,1.3c-0.1,6.7,0,13.5,0,20.2c0,1-0.2,1.3-1.3,1.3
	c-17.2,0-34.4,0-51.6,0c-1,0-1.2-0.3-1.2-1.2c0-6.8,0-13.5,0-20.3c0-1,0.2-1.3,1.3-1.3C61.9,389.7,70.5,389.7,79.1,389.7z"/>
<path id="XMLID_250_" d="M79.1,416c8.5,0,17.1,0,25.6,0c1.2,0,1.4,0.3,1.4,1.4c0.1,3.5-0.3,6.9-2.6,9.7c-2.2,2.8-5.1,4.4-8.7,4.5
	c-3.3,0.1-6.7,0.1-10,0.1c-1,0-1.3,0.3-1.2,1.2c0.1,2,0,4,0,6c0,0.7,0.2,1.2,0.7,1.7c3,2.8,3.2,7.6,0.4,10.5
	c-2.9,3.1-7.9,3.1-10.8,0.2c-2.9-2.9-2.9-7.7,0-10.5c0.6-0.6,0.9-1.2,0.9-2.1c-0.1-2-0.1-3.9,0-5.9c0-0.9-0.3-1.1-1.1-1.1
	c-3.3,0-6.6,0.1-9.9,0c-6.3-0.2-11.3-5.3-11.6-11.6c0-1,0.1-2,0-3c-0.1-1.1,0.4-1.2,1.3-1.2c6.3,0,12.5,0,18.8,0
	C74.5,416,76.8,416,79.1,416z"/>
<path id="XMLID_244_" d="M121.1,402.4c-0.1,3.7-1.6,6.9-4.4,9.3c-0.6,0.5-0.8,1-0.8,1.8c0,2.7,0,5.4,0,8.1c0,0.8,0.2,1.2,0.9,1.6
	c2.8,1.7,4.1,4.3,3.7,7.6c-0.4,3-2.2,5-5,6c-3.5,1.3-7.4-0.4-9.1-3.7c-1.7-3.3-0.7-7.5,2.5-9.5c0.8-0.5,1-1,1-1.9
	c0-10.1,0-20.2,0-30.4c0-1.6,0-1.6,1.6-1.2C117.1,391.3,121.1,396.5,121.1,402.4z"/>
<path id="XMLID_243_" d="M48.6,406.5c0,5.1,0,10.2,0,15.3c0,0.8,0.2,1.2,0.9,1.7c3.2,2.1,4.3,6,2.7,9.4c-1.5,3.3-5.3,5-8.8,4.1
	c-3.6-1-5.9-4.4-5.5-8.2c0.3-2.4,1.6-4.3,3.8-5.5c0.7-0.4,0.9-0.8,0.9-1.5c0-2.7-0.1-5.3,0-8c0-0.9-0.3-1.5-0.9-2.1
	c-3.6-3.3-5-7.4-3.9-12.1c1.1-4.9,4.3-8.1,9.2-9.4c1.8-0.5,1.8-0.4,1.8,1.3C48.6,396.4,48.6,401.5,48.6,406.5z"/>
<g id="XMLID_2_">
	<path id="XMLID_251_" d="M289.2,383.4c1.8,2.5,3.5,5,5.3,7.4c1.7,2.4,3.5,4.8,5.2,7.2c0.4,0.5,0.6,0.8,1.1,0.2
		c3.7-5.1,7.4-10.2,11-15.4c0.1-0.1,0.2-0.2,0.3-0.2c0.1,0,0.1,0,0.2,0c2.3,0,4.5,0,6.8,0c0.8,0,1,0.2,1,1c0,14,0,28.1,0,42.1
		c0,0.9-0.3,1.1-1.1,1.1c-1.9,0-3.9-0.1-5.8,0c-1.2,0.1-1.4-0.4-1.4-1.5c0-8.7,0-17.4,0-26.1c0-0.3,0-0.6,0-0.9
		c0-0.2,0.1-0.6-0.3-0.5c-0.1,0-0.3,0.3-0.4,0.5c-3.2,4.3-6.5,8.6-9.5,13c-0.2,0.2-0.5,0.4-0.6,0.6c-0.6,1.2-1.1,0.8-1.7,0
		c-3.2-4.5-6.5-8.9-9.7-13.4c0-0.2,0-0.3-0.2-0.3l0,0c-0.1-0.3-0.3-0.7-0.5-0.2c-0.2,0.3-0.1,0.8-0.1,1.1c0,8.8,0,17.5,0,26.3
		c0,0.9-0.2,1.4-1.1,1.4c-2.3-0.2-4.6-0.1-6.8,0c-0.4-0.3-0.3-0.7-0.3-1c0-14.3,0-28.7,0-43v-0.1l0,0c2.6,0,5.1,0,7.7,0v0.1h0.1
		c0.1,0.2,0.3,0.3,0.4,0.5l0,0C289.1,383.2,289.1,383.3,289.2,383.4z"/>
	<path id="XMLID_249_" d="M137.3,404.2c0.2-8.3,3.6-14.9,10.5-19.3c10.6-6.9,24.3-4.1,31.7,6.2c0.4,0.5,0.3,0.8-0.2,1.1
		c-1.7,1.2-3.4,2.4-5.1,3.7c-0.8,0.6-1.2,0.4-1.7-0.3c-2-2.8-4.7-4.7-8.1-5.7c-8.1-2.3-16.9,3.1-18.5,11.4
		c-1.7,8.4,4.3,16.8,12.7,17.7c5.7,0.6,10.4-1.4,13.9-6c0.6-0.8,1.1-1,1.9-0.3c1.6,1.3,3.2,2.4,4.8,3.6c0.4,0.3,0.7,0.5,0.2,1.1
		c-5.3,7.1-12.4,10.6-21.3,9.8c-11.6-1-20.3-10.4-20.8-22.1C137.4,404.8,137.4,404.5,137.3,404.2z"/>
	<path id="XMLID_248_" d="M185.1,403.9c0-7.1,0-14.2,0-21.3c0-1.1,0.2-1.5,1.4-1.5c1.7,0.1,3.4,0.1,5.1,0c1,0,1.3,0.3,1.3,1.3
		c-0.1,5.4,0,10.8,0,16.2c0,0.4-0.2,1,0.2,1.2c0.4,0.2,0.7-0.3,1.1-0.5c2.9-2,6-1.8,9.1-0.8c5.5,1.8,9.1,6.3,9.4,12.1
		c0.2,5.1,0.1,10.2,0.1,15.3c0,0.7-0.3,0.9-0.9,0.9c-1.9,0-3.9,0-5.8,0c-0.9,0-1.2-0.3-1.2-1.2c0-4.6,0-9.2,0-13.8
		c0-3.2-1.7-5.4-4.7-6.1c-3.8-0.8-7.3,1.9-7.3,5.8c0,4.6,0,9.2,0,13.8c0,1.1-0.3,1.5-1.4,1.4c-1.7-0.1-3.4-0.1-5.1,0
		c-1.1,0.1-1.3-0.3-1.3-1.3C185.1,418.2,185.1,411.1,185.1,403.9z"/>
	<path id="XMLID_245_" d="M239.7,424.8c-0.2,0-0.3,0-0.3,0c-4.6,4.4-14.1,2.4-18.3-2.9c-3.8-4.8-4.7-10.1-2.1-15.7
		c2.6-5.7,7.3-8.4,13.5-8.6c2.2,0,4.2,0.7,6,2c0.3,0.2,0.6,0.6,1.1,0.7c0.1-0.1,0.2-0.1,0.2-0.2c0.2-2,0.2-2,2.2-2
		c1.5,0,2.9,0,4.4,0c0.7,0,1,0.2,1,0.9c0,8.9,0,17.7,0,26.6c0,0.7-0.3,1-1,0.9c-1.5,0-3.1,0-4.6,0
		C239.9,426.7,239.9,426.7,239.7,424.8z M232.5,419.9c3.9,0,7.4-3.5,7.3-7.4c0-4.1-3.4-7.6-7.3-7.6s-7.3,3.4-7.3,7.4
		C225.2,416.6,228.4,419.9,232.5,419.9z"/>
	<path id="XMLID_242_" d="M257.1,387.2c2.4,0,4.7,0,7.1,0c0,0.5,0.1,0.9,0.1,1.4c0,2.9,0,5.8,0,8.7c0,0.9,0.2,1.2,1.1,1.2
		c2-0.1,3.9,0,5.9,0c1.1,0,1.3,0.3,1.3,1.3c-0.1,1.3-0.1,2.6,0,3.8c0.1,0.9-0.2,1.3-1.2,1.3c-2.2,0-4.4-0.2-6.6,0.1l0,0
		c-0.6,0.1-0.4,0.6-0.4,0.9c0,3.5,0,6.9,0,10.4c0,2.1,1.2,3.2,3.3,3.2c1.3,0,2.6,0,3.9,0c0.7,0,1,0.2,1.2,0.9c0.5,1.8,1,3.6,1.5,5.5
		c0.1,0.4,0.3,0.9-0.4,0.9c-3.1-0.1-6.2,0.4-9.2-0.3c-4.3-0.9-7.4-4.7-7.6-9.1c-0.1-3.7-0.1-7.4,0-11.1c0-1.1-0.3-1.5-1.4-1.4
		c-2.6,0.1-2.6,0-2.6-2.6c0-0.9,0-1.9,0-2.8c0-0.7,0.2-0.9,0.9-0.9h0.1c3-0.1,2.9-0.1,3-3.1C257,392.7,256.8,389.9,257.1,387.2z"/>
	<path id="XMLID_239_" d="M383.9,403.1c2.5-2.8,5.6-4.7,9.4-5.2c2.9-0.5,5.6,0.1,8.1,1.6c0.2,0.1,0.3,0.2,0.5,0.3l0,0
		c0.1,0.1,0.2,0.2,0.3,0.3l0,0c1.1,0.8,0.7-0.3,0.7-0.6c0-5.7,0-11.4,0-17.1c0-0.9,0.2-1.3,1.2-1.3c1.8,0.1,3.5,0.1,5.3,0
		c0.8,0,1.1,0.3,1.1,1.1c-0.1,2.1,0,4.3,0,6.4c0,12.2,0,24.4,0,36.6c0,1.2-0.3,1.5-1.4,1.4c-1.6-0.1-3.2-0.1-4.8,0
		c-0.9,0-1.5-0.1-1.4-1.2c0.1-1.1-0.4-0.6-0.8-0.2c-6.8,4.7-17,0.8-20.2-6.7c-1.4-3.8-1.6-7.7-0.2-11.6l0,0c0.4-0.5,0.6-1,0.7-1.6
		l0,0c0.2-0.1,0.3-0.3,0.3-0.5l0,0c0.2-0.1,0.3-0.3,0.3-0.5l0,0c0.1-0.1,0.1-0.2,0.2-0.3l0,0c0.2-0.1,0.3-0.3,0.3-0.5l0,0
		c0.1-0.1,0.2-0.2,0.2-0.3l0,0C383.8,403.3,383.8,403.2,383.9,403.1z M388.3,412.4c0,4.2,3.3,7.6,7.3,7.6c3.9,0,7.3-3.4,7.3-7.4
		c0-4.2-3.4-7.7-7.4-7.6C391.5,405,388.2,408.4,388.3,412.4z"/>
	<path id="XMLID_238_" d="M355.2,426.8c-2.3-0.1-4.6-0.1-6.9,0c-0.1-0.1-0.3-0.2-0.4-0.3l0,0c0-0.6,0-1.1,0-1.7c0-8.9,0-17.7,0-26.6
		c2.2,0,4.4,0,6.7,0c0.6,0,1.2-0.1,1.1,0.9c-0.1,0.6,0.5,0.6,0.8,0.4c3-2.3,6.2-2.1,9.5-1c3.7,1.2,6.4,3.5,8.1,7
		c0.1,0.2,0.2,0.4,0.3,0.5c0,0.2,0,0.5,0.2,0.6l0,0c0,0.3,0.1,0.5,0.3,0.7l0,0c0,0.4,0,0.7,0.3,1l0,0c0.6,5.9,0.2,11.7,0.3,17.6
		c0,0.7-0.3,0.9-0.9,0.9c-1.9,0-3.8-0.1-5.7,0c-1,0-1.3-0.3-1.3-1.3c0.1-4.4,0-8.8,0-13.2c0-0.7,0.1-1.5-0.3-2.1l0,0
		c0-0.3,0-0.6-0.2-0.8l0,0c0-0.2,0-0.4-0.2-0.6l0,0c0-0.2-0.1-0.4-0.3-0.5l0,0c-0.1-0.1-0.2-0.2-0.3-0.3c-1.9-2.9-6.7-3.2-8.8-0.7
		c-0.2,0.3-0.5,0.6-0.8,0.8c-0.1,0.1-0.1,0.2-0.2,0.3l0,0c-0.3,0.2-0.3,0.4-0.3,0.7l0,0c-0.2,0.2-0.3,0.5-0.3,0.8l0,0
		c-0.3,0.4-0.3,0.8-0.3,1.2c0,5.1,0,10.2,0,15.3l0,0C355.7,426.6,355.4,426.7,355.2,426.8z"/>
	<path id="XMLID_237_" d="M438.3,421.4c-1.9,3.6-5,5.2-9,5.4c-4.7,0.2-8.8-1.3-12.4-4.3c-0.6-0.5-0.7-0.8,0-1.4
		c1.2-1,2.2-2.2,3.2-3.4c0.7-0.8,1.1-1,2-0.2c2,1.8,4.4,2.9,7.3,2.6c0.6-0.1,1.2-0.3,1.7-0.5c0.7-0.4,1.1-0.9,1.1-1.7
		s-0.5-1.2-1.2-1.5c-1.4-0.6-2.9-0.8-4.3-1.1c-1.6-0.4-3.2-0.8-4.6-1.5c-5.5-2.7-6.2-10.2-1.2-13.7c4.2-2.9,8.6-2.7,13.1-0.7
		c1.3,0.6,2.5,1.3,3.6,2.2c0.6,0.4,0.8,0.8,0.2,1.4c-1.1,1.1-2.1,2.3-3,3.5c-0.5,0.7-0.9,0.8-1.7,0.2c-1.8-1.4-3.7-2.3-6.1-1.9
		c-0.3,0-0.5,0.1-0.8,0.1c-0.9,0.2-1.7,0.7-1.8,1.6c-0.1,1,0.8,1.4,1.6,1.6c2.4,0.7,4.9,1.3,7.3,2.1c2.5,0.8,4.5,2.3,5.4,4.9
		C439.2,417.1,439.2,419.3,438.3,421.4z"/>
	<path id="XMLID_236_" d="M330.7,398.2c2.6,0,5.3,0,7.9,0c0,9.2,0,18.4,0.1,27.6c0,0.7-0.4,0.8-1,0.8c-2,0-4,0-6,0
		c-0.8,0-1.1-0.2-1.1-1.1c0-4.4,0-8.7,0-13.1C330.7,407.7,330.7,403,330.7,398.2z"/>
	<path id="XMLID_235_" d="M330.7,387.2c2-2.4,6.3-2.8,8.5,1c0.1,0.2,0.1,0.3,0.2,0.5l0,0c0.2,1.1,0.2,2.3-0.2,3.4
		c-1.7,2.5-3.7,3.3-6.1,2.6c-1.4-0.4-2.1-1.4-2.8-2.6c-0.3-1.1-0.4-2.2-0.2-3.4v-0.1c0.2-0.2,0.3-0.4,0.3-0.7l0,0
		c0.2-0.1,0.3-0.3,0.3-0.5l0,0C330.6,387.5,330.7,387.3,330.7,387.2z"/>
	<path id="XMLID_234_" d="M311.3,398.2c0.1-0.2,0.2-0.5,0.4-0.5c0.4-0.1,0.3,0.3,0.3,0.5c0,0.3,0,0.6,0,0.9c0,8.7,0,17.4,0,26.1
		c0,1.1,0.2,1.5,1.4,1.5c1.9-0.1,3.9-0.1,5.8,0c0.8,0,1.1-0.2,1.1-1.1c0-14,0-28.1,0-42.1c0-0.8-0.3-1-1-1c-2.3,0-4.5,0-6.8,0
		c1.8-0.5,3.6-0.2,5.3-0.2c3.2,0,2.9-0.3,2.9,2.9c0,13.2,0,26.5,0,39.7c0,1.9,0,1.9-1.9,1.9s-3.8-0.1-5.7,0
		c-1.2,0.1-1.4-0.4-1.4-1.5c0-8.5,0-17,0-25.4C311.6,399.3,311.8,398.7,311.3,398.2z"/>
	<path id="XMLID_233_" d="M402,425.3c0.4-0.4,0.9-0.9,0.8,0.2c-0.1,1.1,0.5,1.2,1.4,1.2c1.6,0,3.2-0.1,4.8,0
		c1.1,0.1,1.4-0.3,1.4-1.4c0-12.2,0-24.4,0-36.6c0-2.1,0-4.3,0-6.4c0-0.8-0.3-1.1-1.1-1.1c-1.8,0-3.5,0.1-5.3,0
		c-1,0-1.2,0.4-1.2,1.3c0,5.7,0,11.4,0,17.1c0,0.3,0.4,1.4-0.7,0.6c0.4-0.5,0.3-1.1,0.3-1.6c0-5.3,0-10.5,0-15.8
		c0-1.6,0.1-1.7,1.7-1.7c1.8,0,3.5,0,5.3,0c0.9,0,1.3,0.3,1.3,1.2c0,14.4,0,28.9,0,43.3c0,0.9-0.3,1.3-1.2,1.3c-1.4-0.1-2.7,0-4.1,0
		C404,426.8,402.5,427.2,402,425.3z"/>
	<path id="XMLID_232_" d="M330.7,398.2c0,4.8,0,9.5-0.1,14.3c0,4.4,0,8.7,0,13.1c0,0.8,0.3,1.1,1.1,1.1c2,0,4,0,6,0
		c0.6,0,1-0.1,1-0.8c0-9.2-0.1-18.4-0.1-27.6c0.7,0.2,0.5,0.7,0.5,1.2c0,8.7,0,17.4,0,26.1c0,1-0.4,1.4-1.4,1.3
		c-2.1,0-4.1-0.1-6.2,0c-1,0-1.2-0.4-1.2-1.3c0-8.7,0-17.4,0-26.1C330.4,399,330.3,398.6,330.7,398.2z"/>
	<path id="XMLID_230_" d="M367.5,410c0.4,0.7,0.3,1.4,0.3,2.1c0,4.4,0,8.8,0,13.2c0,1,0.3,1.3,1.3,1.3c1.9-0.1,3.8,0,5.7,0
		c0.6,0,1-0.1,0.9-0.9c-0.2-5.9,0.3-11.7-0.3-17.6c0.5,0.8,0.6,1.8,0.6,2.7c0,4.8,0,9.7,0,14.5c0,1-0.3,1.4-1.3,1.4
		c-2-0.1-3.9,0-5.9,0c-0.9,0-1.3-0.2-1.3-1.2C367.5,420.4,367.5,415.2,367.5,410z"/>
	<path id="XMLID_229_" d="M287.8,426.8c0.9,0,1.1-0.5,1.1-1.4c0-8.8,0-17.5,0-26.3c0-0.4-0.1-0.8,0.1-1.1c0.3-0.5,0.4-0.1,0.5,0.2
		c-0.5,0.5-0.3,1.1-0.3,1.7c0,8.5,0,17,0,25.5C289.3,426.4,289,427,287.8,426.8z"/>
	<path id="XMLID_228_" d="M348,398.3c0,8.9,0,17.7,0,26.6c0,0.6,0,1.1,0,1.7c-0.4-0.3-0.3-0.8-0.3-1.2c0-8.6,0-17.2,0-25.8
		C347.6,399.1,347.5,398.6,348,398.3z"/>
	<path id="XMLID_227_" d="M381.6,407c-1.4,3.9-1.1,7.7,0.2,11.6c-1.4-2.4-1.7-5-1.4-7.6C380.6,409.6,380.6,408.1,381.6,407z"/>
	<path id="XMLID_226_" d="M355.8,426.5c0-5.1,0-10.2,0-15.3c0-0.4,0-0.9,0.3-1.2c0,5.2,0,10.5,0.1,15.7
		C356.1,426,356.1,426.3,355.8,426.5z"/>
	<path id="XMLID_224_" d="M288.5,382.5c-2.6,0-5.1,0-7.7,0c0.9-0.5,1.8-0.2,2.8-0.2C285.2,382.3,286.8,382,288.5,382.5z"/>
	<path id="XMLID_223_" d="M339.1,392c0.4-1.1,0.4-2.2,0.2-3.4C339.9,389.8,340,391,339.1,392z"/>
	<path id="XMLID_222_" d="M329.9,388.7c-0.2,1.1-0.1,2.3,0.2,3.4C329.4,391,329.4,389.9,329.9,388.7z"/>
	<path id="XMLID_221_" d="M382.4,405.4c-0.1,0.6-0.4,1.1-0.7,1.6C381.6,406.4,381.8,405.8,382.4,405.4z"/>
	<path id="XMLID_220_" d="M367.3,409.2c0.2,0.2,0.3,0.5,0.2,0.8C367.2,409.9,367.2,409.6,367.3,409.2z"/>
	<path id="XMLID_219_" d="M356,410c0-0.3,0-0.6,0.3-0.8C356.4,409.6,356.4,409.9,356,410z"/>
	<path id="XMLID_218_" d="M356.3,409.3c0-0.3,0.1-0.6,0.3-0.7C356.6,408.8,356.6,409.1,356.3,409.3z"/>
	<path id="XMLID_217_" d="M375.4,408.2c-0.3-0.3-0.3-0.6-0.3-1C375.4,407.5,375.4,407.8,375.4,408.2z"/>
	<path id="XMLID_216_" d="M289,383.1c-0.1-0.2-0.3-0.3-0.4-0.5C288.8,382.6,288.9,382.8,289,383.1z"/>
	<path id="XMLID_215_" d="M355.2,426.8c0.2-0.1,0.4-0.2,0.6-0.3C355.7,426.7,355.5,426.8,355.2,426.8z"/>
	<path id="XMLID_214_" d="M401.9,399.8c-0.2-0.1-0.3-0.2-0.5-0.3C401.6,399.5,401.8,399.6,401.9,399.8z"/>
	<path id="XMLID_213_" d="M383.5,403.7c0,0.2-0.1,0.4-0.3,0.5C383.2,403.9,383.3,403.8,383.5,403.7z"/>
	<path id="XMLID_212_" d="M383,404.5c0,0.2-0.1,0.4-0.3,0.5C382.7,404.7,382.7,404.5,383,404.5z"/>
	<path id="XMLID_211_" d="M382.7,404.9c0,0.2-0.1,0.4-0.3,0.5C382.4,405.2,382.5,405.1,382.7,404.9z"/>
	<path id="XMLID_210_" d="M374.8,406.5c-0.2-0.2-0.2-0.4-0.2-0.6C374.8,406.1,374.9,406.3,374.8,406.5z"/>
	<path id="XMLID_209_" d="M375.1,407.2c-0.2-0.2-0.3-0.4-0.3-0.7C375.1,406.7,375.1,406.9,375.1,407.2z"/>
	<path id="XMLID_208_" d="M366.7,408.3c0.3,0,0.3,0.3,0.3,0.5C366.8,408.7,366.7,408.5,366.7,408.3z"/>
	<path id="XMLID_207_" d="M330.2,388c0,0.3-0.1,0.5-0.3,0.7C329.9,388.4,330,388.1,330.2,388z"/>
	<path id="XMLID_206_" d="M367,408.7c0.2,0.1,0.3,0.3,0.2,0.6C367,409.2,367,409,367,408.7z"/>
	<path id="XMLID_205_" d="M330.5,387.5c0,0.2-0.1,0.4-0.3,0.5C330.2,387.8,330.3,387.6,330.5,387.5z"/>
	<path id="XMLID_204_" d="M312.2,382.6c-0.1,0.1-0.2,0.2-0.3,0.2C312,382.7,312.1,382.6,312.2,382.6z"/>
	<path id="XMLID_203_" d="M383.2,404.2c-0.1,0.1-0.1,0.2-0.2,0.3C383,404.4,383.1,404.3,383.2,404.2z"/>
	<path id="XMLID_202_" d="M383.7,403.4c-0.1,0.1-0.2,0.2-0.2,0.3C383.5,403.6,383.6,403.5,383.7,403.4z"/>
	<path id="XMLID_201_" d="M366.4,408c0.1,0.1,0.2,0.2,0.3,0.3C366.6,408.2,366.5,408.1,366.4,408z"/>
	<path id="XMLID_200_" d="M383.9,403.1c-0.1,0.1-0.2,0.2-0.2,0.3C383.8,403.3,383.8,403.2,383.9,403.1z"/>
	<path id="XMLID_199_" d="M402.2,400.1c-0.1-0.1-0.2-0.2-0.3-0.3C402,399.9,402.1,400,402.2,400.1z"/>
	<path id="XMLID_198_" d="M289.6,398.2c0.2,0.1,0.2,0.2,0.2,0.3C289.7,398.4,289.6,398.3,289.6,398.2z"/>
	<path id="XMLID_197_" d="M356.7,408.5c0.1-0.1,0.1-0.2,0.2-0.3C356.8,408.3,356.7,408.4,356.7,408.5z"/>
	<path id="XMLID_196_" d="M289.2,383.4c-0.1-0.1-0.2-0.2-0.2-0.3C289.1,383.2,289.1,383.3,289.2,383.4z"/>
	<path id="XMLID_195_" d="M330.7,387.2c0.1,0.2,0,0.3-0.2,0.3C330.5,387.4,330.6,387.3,330.7,387.2z"/>
	<path id="XMLID_194_" d="M347.9,426.5c0.1,0.1,0.3,0.2,0.4,0.3C348.2,426.7,348,426.6,347.9,426.5z"/>
	<path id="XMLID_193_" d="M339.3,388.7c-0.1-0.2-0.1-0.3-0.2-0.5C339.2,388.4,339.3,388.5,339.3,388.7z"/>
</g>
<path id="XMLID_186_" d="M90.7,357.7c2.7,0,4.8,2.1,4.8,4.8s-2.2,4.9-4.9,4.9c-2.7,0-4.9-2.3-4.8-5C85.9,359.8,88,357.7,90.7,357.7z
	"/>
<path id="XMLID_185_" d="M67.5,357.7c2.8,0,4.9,2.1,5,4.8c0,2.7-2.1,4.9-4.9,4.9c-2.6,0-4.8-2.2-4.8-4.8
	C62.7,359.9,64.8,357.8,67.5,357.7z"/>
</svg>
