<svg width="29" height="37" viewBox="0 0 29 37" fill="none" xmlns="http://www.w3.org/2000/svg">
<g id="wallet.pass.fill">
<g id="Group">
<path id="Vector" d="M5.90402 36.3213H23.683C27.1317 36.3213 28.8727 34.5635 28.8727 31.0813V5.68517C28.8727 2.18628 27.1484 0.428467 23.683 0.428467H19.4309C18.8616 0.428467 18.4766 0.830253 18.4766 1.43293C18.4766 1.51664 18.4766 1.60034 18.4766 1.66731C18.4766 3.84364 17.0033 5.14945 14.7935 5.14945C12.5837 5.14945 11.1105 3.84364 11.1105 1.66731C11.1105 1.60034 11.1105 1.51664 11.1105 1.43293C11.1105 0.830253 10.7255 0.428467 10.1563 0.428467H5.90402C2.43862 0.428467 0.714294 2.18628 0.714294 5.68517V31.0813C0.714294 34.5635 2.45537 36.3213 5.90402 36.3213ZM8.44867 12.9006C7.84599 12.9006 7.41072 12.4486 7.41072 11.8459C7.41072 11.2767 7.84599 10.8247 8.44867 10.8247H21.1552C21.7412 10.8247 22.1763 11.2767 22.1763 11.8459C22.1763 12.4486 21.7412 12.9006 21.1552 12.9006H8.44867ZM8.44867 18.8436C7.84599 18.8436 7.41072 18.3916 7.41072 17.8225C7.41072 17.2365 7.84599 16.7845 8.44867 16.7845H14.4587C15.0614 16.7845 15.4967 17.2365 15.4967 17.8225C15.4967 18.3916 15.0614 18.8436 14.4587 18.8436H8.44867Z" fill="#262626"/>
</g>
</g>
</svg>
